<?xml version="1.0" encoding="UTF-8" standalone="no"?>
<!DOCTYPE svg PUBLIC "-//W3C//DTD SVG 1.1//EN" "http://www.w3.org/Graphics/SVG/1.1/DTD/svg11.dtd">
<svg version="1.1" xmlns="http://www.w3.org/2000/svg" xmlns:xlink="http://www.w3.org/1999/xlink" preserveAspectRatio="xMidYMid meet" viewBox="0 0 640 640" width="640" height="640"><defs><path d="M524.9 84.82C524.83 84.75 524.76 84.69 524.69 84.63C466.92 33.07 393.2 4.86 315.14 4.86C315.13 4.86 315.12 4.86 315.11 4.86C315.1 4.86 315.1 4.86 315.1 4.86C264.65 4.87 214.48 17.08 170.02 40.19C147.15 52.08 125.75 66.87 106.39 84C105.82 84.4 105.28 84.87 104.79 85.41C88.36 100.15 73.43 116.58 60.42 134.4C57.29 138.7 58.23 144.73 62.53 147.86C66.82 151 72.85 150.06 75.99 145.76C86.84 130.9 98.99 117.22 112.2 104.81C133.83 123.03 157.64 138.14 182.95 149.83C167.92 197.43 159.49 252.58 158.64 310.36C144.72 310.36 33.35 310.36 19.43 310.36C20.8 266.85 31.41 225.21 51.05 186.45C53.46 181.7 51.56 175.9 46.81 173.5C42.07 171.09 36.27 172.99 33.86 177.74C11.39 222.08 0 269.94 0 320C0 404.18 32.78 483.32 92.3 542.84C151.82 602.36 230.96 635.14 315.14 635.14C382.61 635.14 446.95 614.13 501.21 574.37C505.5 571.23 506.43 565.2 503.29 560.91C500.14 556.61 494.11 555.68 489.82 558.83C456.12 583.52 418.28 600.5 378.18 609.17C386.13 602.25 393.8 593.99 401.09 584.42C404.32 580.18 403.51 574.14 399.27 570.91C395.04 567.68 389 568.5 385.77 572.73C367.08 597.25 346.19 611.72 324.84 615.09C324.93 606.92 325.61 541.51 325.7 533.34C325.75 528.02 321.48 523.66 316.16 523.6C316.13 523.6 316.09 523.6 316.06 523.6C310.79 523.6 306.48 527.85 306.43 533.14C306.34 541.34 305.65 606.93 305.57 615.13C273.73 610.25 243.62 581.11 219.93 531.85C214.97 521.54 210.42 510.6 206.3 499.12C225.83 491.39 246.23 485.74 267.18 482.33C272.43 481.47 275.99 476.52 275.14 471.27C274.28 466.02 269.33 462.45 264.08 463.31C242.11 466.89 220.72 472.78 200.21 480.81C186.46 435.92 178.74 384.06 177.92 329.64C188.16 329.64 270.06 329.64 280.3 329.64C285.62 329.64 289.94 325.32 289.94 320C289.94 314.68 285.62 310.37 280.3 310.37C270.06 310.37 188.16 310.37 177.92 310.37C178.75 255.21 186.67 202.7 200.77 157.4C234.13 170.38 269.7 177.67 306.05 178.72C306.09 189.91 306.39 279.48 306.43 290.68C306.44 295.99 310.76 300.28 316.06 300.28C316.07 300.28 316.08 300.28 316.09 300.28C321.42 300.27 325.71 295.94 325.7 290.62C325.66 279.42 325.36 189.87 325.33 178.68C360.8 177.54 395.52 170.46 428.15 157.94C436.93 186.83 443.12 218.74 446.25 252.15C446.75 257.45 451.44 261.34 456.75 260.84C462.04 260.34 465.94 255.64 465.44 250.35C462.12 214.97 455.47 181.12 445.99 150.44C471.78 138.67 496.03 123.39 518.03 104.86C573.06 156.79 608.24 229.53 610.84 310.37C605.32 310.37 561.18 310.37 555.66 310.37C550.34 310.37 546.03 314.68 546.03 320.01C546.03 325.33 550.34 329.64 555.66 329.64C561.18 329.64 605.33 329.64 610.85 329.64C609.12 383.33 592.98 435.21 563.89 480.27C561.01 484.74 562.29 490.7 566.76 493.59C568.38 494.63 570.19 495.13 571.98 495.13C575.14 495.13 578.24 493.57 580.08 490.72C612.93 439.85 630.29 380.82 630.29 320C630.29 235.83 597.5 156.69 537.98 97.16C533.72 92.9 529.35 88.8 524.9 84.82ZM251.89 609.04C204.63 598.71 161.57 577.06 125.69 547.07C144.99 530.95 166.13 517.45 188.59 506.81C192.83 518.5 197.48 529.66 202.55 540.2C216.81 569.83 233.53 593 251.89 609.04ZM111.16 534.12C56.75 482.26 22.03 409.94 19.44 329.64C33.36 329.64 144.72 329.64 158.64 329.64C159.48 386.72 167.72 441.23 182.41 488.43C156.86 500.31 132.89 515.64 111.16 534.12ZM126.85 91.93C163.04 62.14 205.92 41.22 251.73 31.09C233.44 47.13 216.77 70.25 202.55 99.8C197.73 109.82 193.29 120.41 189.22 131.48C167 121.02 146.04 107.78 126.85 91.93ZM219.92 108.15C243.61 58.9 273.71 29.77 305.54 24.87C305.59 38.33 305.94 145.98 305.99 159.43C271.77 158.38 238.3 151.43 206.94 139.11C210.89 128.28 215.22 117.93 219.92 108.15ZM324.81 24.97C350.44 29.31 375.86 50.71 397.29 86.35C406.72 102.04 415.04 119.98 422.09 139.61C391.38 151.51 358.68 158.26 325.26 159.4C325.17 132.51 324.86 38.41 324.81 24.97ZM413.81 76.42C402.47 57.57 389.92 42.18 376.58 30.56C424.03 40.63 467.32 62.08 503.42 91.94C483.88 108.07 462.5 121.52 439.83 132.06C432.43 111.62 423.7 92.88 413.81 76.42Z" id="j5qSR69BG"></path><path d="M491.49 345.05C453.73 307.29 392.28 307.29 354.52 345.05C316.76 382.81 316.76 444.26 354.52 482.02C373.41 500.9 398.2 510.34 423.01 510.34C447.8 510.34 472.61 500.9 491.49 482.02C509.78 463.73 519.86 439.4 519.86 413.53C519.86 387.66 509.78 363.34 491.49 345.05C491.49 345.05 491.49 345.05 491.49 345.05ZM368.15 468.39C337.9 438.14 337.9 388.93 368.15 358.68C383.27 343.56 403.14 336 423.01 336C442.87 336 462.74 343.56 477.86 358.68C477.86 358.68 477.86 358.68 477.86 358.68C492.52 373.33 500.58 392.81 500.58 413.54C500.58 434.26 492.52 453.74 477.86 468.39C447.61 498.64 398.4 498.64 368.15 468.39Z" id="a1ATpsq4P"></path><path d="M539.79 488.72C554.15 466.5 561.86 440.61 561.86 413.53C561.86 376.45 547.41 341.58 521.19 315.35C467.05 261.22 378.97 261.22 324.83 315.35C307.74 332.44 295.37 353.72 289.06 376.91C287.66 382.04 290.68 387.34 295.82 388.74C300.96 390.14 306.25 387.11 307.65 381.97C313.09 362.02 323.74 343.7 338.46 328.98C385.08 282.36 460.94 282.36 507.56 328.98C530.15 351.57 542.59 381.59 542.59 413.53C542.59 445.48 530.15 475.5 507.56 498.09C460.94 544.71 385.08 544.71 338.46 498.09C318.38 478.01 306.08 451.4 303.81 423.14C303.39 417.84 298.74 413.9 293.44 414.31C288.14 414.73 284.18 419.38 284.61 424.68C287.23 457.49 301.52 488.41 324.83 511.72C351.9 538.78 387.45 552.32 423.01 552.32C449.19 552.32 475.37 544.97 498.17 530.29C507.91 540.03 585.84 617.96 595.58 627.71C597.47 629.59 599.93 630.53 602.4 630.53C604.86 630.53 607.33 629.59 609.21 627.71C612.01 624.91 634.38 602.53 637.18 599.74C638.99 597.93 640 595.48 640 592.92C640 590.37 638.98 587.92 637.18 586.11C617.7 566.63 549.52 498.45 539.79 488.72ZM514.02 518.89C518.3 514.6 520.69 512.22 521.16 511.74C521.17 511.73 521.18 511.73 521.19 511.72C521.2 511.71 521.2 511.7 521.21 511.69C521.69 511.21 524.07 508.83 528.36 504.54L616.74 592.92L602.39 607.27L514.02 518.89Z" id="cWhJ1dmLt"></path></defs><g><g><g><use xlink:href="#j5qSR69BG" opacity="1" fill="#ffffff" fill-opacity="1"></use><g><use xlink:href="#j5qSR69BG" opacity="1" fill-opacity="0" stroke="#000000" stroke-width="1" stroke-opacity="0"></use></g></g><g><use xlink:href="#a1ATpsq4P" opacity="1" fill="#ffffff" fill-opacity="1"></use><g><use xlink:href="#a1ATpsq4P" opacity="1" fill-opacity="0" stroke="#000000" stroke-width="1" stroke-opacity="0"></use></g></g><g><use xlink:href="#cWhJ1dmLt" opacity="1" fill="#ffffff" fill-opacity="1"></use><g><use xlink:href="#cWhJ1dmLt" opacity="1" fill-opacity="0" stroke="#000000" stroke-width="1" stroke-opacity="0"></use></g></g></g></g></svg>