<?xml version="1.0" encoding="UTF-8" standalone="no"?>
<!DOCTYPE svg PUBLIC "-//W3C//DTD SVG 1.1//EN" "http://www.w3.org/Graphics/SVG/1.1/DTD/svg11.dtd">
<svg version="1.1" xmlns="http://www.w3.org/2000/svg" xmlns:xlink="http://www.w3.org/1999/xlink" preserveAspectRatio="xMidYMid meet" viewBox="0 0 640 640" width="640" height="640"><defs><path d="M95.64 416.27C96.91 416.37 103.29 416.88 114.78 417.8L221.38 417.8L221.38 362.36L116.09 362.36C108.47 361.76 104.25 361.43 103.4 361.36C66.73 355.52 55.64 333.32 54.05 304.3C52.52 276.57 78.75 251.84 124.49 236.07C124.49 236.07 90.71 191.08 124.49 162.82C158.26 134.56 207.02 187.41 207.02 187.41C207.02 187.41 268.14 71.24 358.99 79.76C496.11 92.64 485.32 244.36 485.32 244.36C485.32 244.36 556.7 256.57 556.7 304.3C556.7 357.58 495.92 362.36 495.92 362.36C488.95 362.36 454.1 362.36 391.37 362.36L391.37 417.8L497.25 417.8C508.72 416.88 515.09 416.37 516.36 416.27C570.66 407.43 612 361.61 612 306.39C612 257.88 580.06 216.57 535.47 201.29C533.86 105.21 453.13 27.82 353.82 27.82C282.19 27.82 220.24 68.07 190.64 126.57C176.65 111.55 156.39 102.09 133.86 102.09C91.61 102.09 57.36 135.36 57.36 176.37C57.36 187.08 59.7 197.26 63.87 206.44C26.04 224.66 0 262.58 0 306.39C0 361.61 41.34 407.42 95.64 416.27Z" id="c1MXjLYBUa"></path><path d="M278.18 512.38L166.91 445.09L166.91 500.73L306 584.18L445.09 500.73L445.09 445.09L333.82 512.38L333.82 194.73L278.18 194.73L278.18 512.38Z" id="byHyy8ctb"></path></defs><g><g><g><use xlink:href="#c1MXjLYBUa" opacity="1" fill="#ffffff" fill-opacity="1"></use><g><use xlink:href="#c1MXjLYBUa" opacity="1" fill-opacity="0" stroke="#000000" stroke-width="1" stroke-opacity="0"></use></g></g><g><use xlink:href="#byHyy8ctb" opacity="1" fill="#ffffff" fill-opacity="1"></use><g><use xlink:href="#byHyy8ctb" opacity="1" fill-opacity="0" stroke="#000000" stroke-width="1" stroke-opacity="0"></use></g></g></g></g></svg>