<?xml version="1.0" encoding="UTF-8" standalone="no"?>
<!DOCTYPE svg PUBLIC "-//W3C//DTD SVG 1.1//EN" "http://www.w3.org/Graphics/SVG/1.1/DTD/svg11.dtd">
<svg version="1.1" xmlns="http://www.w3.org/2000/svg" xmlns:xlink="http://www.w3.org/1999/xlink" preserveAspectRatio="xMidYMid meet" viewBox="0 0 640 640" width="640" height="640"><defs><path d="M349.09 59.93C349.09 55.93 349.09 35.96 349.09 0L290.91 0C290.91 35.96 290.91 55.93 290.91 59.93C169.6 73.31 73.31 169.6 59.93 290.91C55.93 290.91 35.96 290.91 0 290.91L0 349.09C35.96 349.09 55.93 349.09 59.93 349.09C73.31 470.4 169.6 566.69 290.91 580.07C290.91 584.07 290.91 604.04 290.91 640L349.09 640C349.09 604.04 349.09 584.07 349.09 580.07C470.4 566.69 566.69 470.4 580.07 349.09C584.07 349.09 604.04 349.09 640 349.09L640 290.91L580.07 290.91C506.96 145.84 429.96 68.85 349.09 59.93ZM116.36 320C116.36 207.56 207.56 116.36 320 116.36C432.44 116.36 523.64 207.56 523.64 320C523.64 432.44 432.44 523.64 320 523.64C207.56 523.64 116.36 432.44 116.36 320Z" id="aZni1MyKJ"></path></defs><g><g><g><use xlink:href="#aZni1MyKJ" opacity="1" fill="#ffffff" fill-opacity="1"></use><g><use xlink:href="#aZni1MyKJ" opacity="1" fill-opacity="0" stroke="#000000" stroke-width="1" stroke-opacity="0"></use></g></g></g></g></svg>